<svg xmlns="http://www.w3.org/2000/svg" xmlns:xlink="http://www.w3.org/1999/xlink" width="500" zoomAndPan="magnify" viewBox="0 0 375 374.999991" height="500" preserveAspectRatio="xMidYMid meet" version="1.0"><defs><clipPath id="0d924361fe"><path d="M 47.90625 121.460938 L 216.597656 121.460938 L 216.597656 361.019531 L 47.90625 361.019531 Z M 47.90625 121.460938 " clip-rule="nonzero"/></clipPath><clipPath id="f6942d72b6"><path d="M 138.152344 13.839844 L 326.90625 13.839844 L 326.90625 332.539062 L 138.152344 332.539062 Z M 138.152344 13.839844 " clip-rule="nonzero"/></clipPath></defs><g clip-path="url(#0d924361fe)"><path fill="#18191a" d="M 142.335938 126.046875 L 142.347656 126.082031 C 142.234375 126.105469 142.121094 126.121094 142.003906 126.144531 C 137.730469 126.933594 133.46875 127.855469 129.261719 128.769531 C 125.402344 129.605469 121.757812 130.398438 118.125 131.085938 C 105.28125 133.511719 79.980469 139.351562 66.605469 143.238281 C 48.445312 148.511719 46.433594 156.464844 48.621094 173.445312 C 50.308594 186.496094 70.257812 297.324219 76.308594 329.601562 C 80.003906 350.558594 88.101562 359.941406 103.367188 361.007812 C 103.65625 361.027344 104.035156 361.019531 104.488281 361.019531 C 114.820312 361.019531 199.710938 352.800781 212.820312 335.316406 C 216.367188 330.40625 216.191406 321.335938 216.085938 315.910156 L 216.082031 315.71875 C 215.855469 304.15625 213.875 292.179688 212.285156 282.554688 C 207.796875 255.414062 201.425781 228.710938 195.214844 203.898438 L 193.519531 197.128906 C 190.605469 185.449219 187.582031 173.371094 184.453125 161.535156 C 184.25 160.765625 184.03125 159.921875 183.796875 159.007812 C 180.652344 146.785156 174.804688 124.027344 161.304688 124.027344 C 157.460938 124.054688 153.566406 124.386719 149.660156 124.910156 C 149.546875 124.925781 149.429688 124.945312 149.316406 124.960938 C 149.253906 124.726562 149.191406 124.492188 149.136719 124.253906 C 148.933594 123.390625 148.773438 122.515625 148.613281 121.664062 L 142.335938 126.046875 " fill-opacity="1" fill-rule="nonzero"/></g><g clip-path="url(#f6942d72b6)"><path fill="#0d6efd" d="M 316.054688 323.878906 C 308.652344 332.066406 297.9375 331.757812 289.042969 326.910156 C 297.207031 329.964844 306.558594 327.585938 313.945312 321.207031 C 321.421875 314.75 324.464844 305.75 325.191406 296.324219 C 325.054688 306.261719 322.832031 316.390625 316.054688 323.878906 Z M 236.964844 228.515625 C 237.964844 233.394531 239.011719 238.265625 240.078125 243.128906 C 241.5 249.632812 243.011719 256.421875 244.828125 263.207031 C 240.5625 252.109375 238.140625 240.394531 236.964844 228.515625 Z M 234.511719 204.863281 C 232.089844 189.117188 230.378906 173.296875 229.335938 157.226562 C 228.460938 143.730469 227.808594 130.179688 228.441406 116.65625 C 229.117188 102.210938 227.734375 88.027344 225.976562 73.703125 C 223.773438 55.75 223.066406 32.308594 207.203125 20.285156 C 203.238281 17.28125 199.132812 15.847656 195.023438 15.582031 C 200.667969 15.199219 206.316406 16.148438 211.117188 19.015625 C 219.800781 24.203125 224.089844 35.277344 227.574219 44.226562 C 232.070312 55.757812 234.730469 67.855469 236.6875 80.054688 C 241.285156 108.722656 239.589844 137.203125 237.011719 165.972656 C 235.847656 178.984375 234.71875 191.9375 234.511719 204.863281 Z M 156.480469 40.882812 C 149.378906 50.65625 145.050781 61.445312 142.890625 73.328125 C 140.925781 84.136719 141.210938 95.148438 141.832031 106.109375 C 140.234375 95.207031 139.242188 84.226562 140.890625 73.246094 C 142.574219 62.003906 147.761719 51.429688 154.246094 42.210938 C 159.542969 34.6875 166.210938 27.996094 173.96875 23.019531 C 166.917969 28.121094 160.761719 34.996094 156.480469 40.882812 Z M 303.546875 222.132812 C 302.863281 220.597656 302.199219 219.058594 301.542969 217.511719 C 306.308594 226.894531 310.898438 236.71875 314.75 246.8125 C 311.199219 238.484375 307.207031 230.316406 303.546875 222.132812 Z M 324.097656 272.472656 C 319.28125 250.484375 309.507812 228.9375 299.039062 209.109375 C 298.242188 207.609375 297.433594 206.117188 296.613281 204.628906 C 294.960938 199.800781 293.515625 194.902344 292.363281 189.921875 C 290.195312 180.554688 289.742188 171.402344 290.5625 162.097656 C 294.644531 163.269531 295.722656 150.875 296.9375 146.828125 C 298.167969 143.269531 301.597656 142.582031 304.199219 140.25 C 306.53125 138.058594 307.347656 134.910156 307.898438 131.894531 C 308.40625 129.242188 308.464844 124.296875 306.367188 122.300781 C 304.605469 120.625 302.117188 120.773438 299.730469 121.773438 C 296.714844 123.035156 293.867188 125.644531 292.828125 127.644531 C 290.910156 131.34375 290.5 135.867188 289.8125 139.839844 C 288.992188 144.226562 288.582031 148.609375 288.171875 152.992188 C 287.9375 155.769531 286.796875 159.175781 288.859375 161.113281 C 287.234375 173.433594 289.417969 186.234375 292.957031 198.21875 C 289.0625 191.617188 284.847656 185.199219 280.21875 179.117188 C 277.570312 175.640625 274.640625 172.386719 272.3125 168.671875 C 271.523438 167.417969 270.917969 166.117188 270.453125 164.777344 C 273.878906 163.644531 271.613281 152.425781 271.625 148.40625 C 271.789062 144.640625 274.878906 143.003906 276.707031 140.03125 C 278.3125 137.269531 278.199219 134.007812 277.863281 130.964844 C 277.597656 128.28125 276.242188 123.527344 273.660156 122.210938 C 271.496094 121.105469 269.152344 121.957031 267.148438 123.597656 C 264.617188 125.667969 262.628906 128.980469 262.210938 131.195312 C 261.425781 135.289062 262.324219 139.738281 262.800781 143.746094 C 263.265625 148.183594 264.121094 152.5 264.980469 156.820312 C 265.621094 159.878906 265.378906 164.039062 269.015625 164.769531 C 270.699219 169.449219 273.667969 173.515625 277.265625 178 C 284.210938 186.648438 290.09375 196.179688 295.4375 205.925781 C 295.632812 206.480469 295.828125 207.03125 296.023438 207.582031 C 302.214844 224.929688 311.382812 241.03125 317.679688 258.339844 C 323.480469 274.296875 328.242188 295.730469 319.976562 311.640625 C 316.464844 318.398438 310.25 323.769531 303.082031 326.257812 C 294.800781 329.132812 286.921875 326.039062 280.835938 320.363281 C 281.433594 318.65625 280.394531 316.867188 279.625 315.390625 C 277.894531 312.0625 275.363281 309.050781 273.089844 306.082031 C 271.640625 304.1875 270.164062 301.628906 268.25 300.175781 C 266.992188 299.222656 265.09375 299.046875 263.613281 299.730469 C 263.34375 299.308594 263.078125 298.890625 262.8125 298.472656 C 258.574219 291.746094 254.742188 284.6875 251.234375 277.503906 C 246.722656 265.113281 243.792969 251.976562 241.015625 239.492188 C 239.179688 231.230469 237.554688 222.984375 236.121094 214.726562 C 235.917969 206.566406 236.183594 198.410156 236.742188 190.410156 C 238.761719 161.351562 242.828125 132.390625 241.144531 103.207031 C 239.816406 80.117188 235.289062 56.371094 225.636719 35.277344 C 222.082031 27.507812 217.109375 19.816406 209.125 16.097656 C 201.097656 12.367188 190.867188 13.761719 182.851562 16.667969 C 166.363281 22.652344 153.625 37.6875 145.914062 52.941406 C 135.855469 72.832031 138.011719 94.152344 142.183594 115.226562 C 141.289062 115.507812 140.421875 115.890625 139.597656 116.445312 C 139.3125 116.640625 139.121094 116.988281 139.234375 117.34375 C 140.183594 120.296875 141.160156 123.195312 142.003906 126.140625 C 144.554688 125.671875 147.109375 125.246094 149.660156 124.910156 C 149.59375 124.664062 149.527344 124.421875 149.472656 124.171875 C 148.746094 121.039062 148.515625 117.792969 146.984375 114.910156 C 146.851562 114.667969 146.515625 114.449219 146.230469 114.480469 C 145.234375 114.589844 144.257812 114.71875 143.3125 114.925781 C 142.410156 91.859375 141.34375 68.785156 153.578125 48.074219 C 162.378906 33.175781 180.328125 12.605469 199.886719 18.351562 C 210.632812 21.507812 216.089844 32.613281 219.238281 42.453125 C 222.8125 53.636719 223.414062 65.570312 224.835938 77.148438 C 226.585938 91.425781 227.492188 105.386719 227.039062 119.765625 C 226.605469 133.339844 227.378906 146.925781 228.273438 160.464844 C 229.167969 174.113281 230.167969 187.710938 232.109375 201.257812 C 232.832031 206.304688 233.675781 211.332031 234.59375 216.34375 C 234.890625 225.746094 235.8125 235.140625 237.699219 244.542969 C 240.117188 256.601562 244.492188 268.527344 250.078125 279.855469 C 253.058594 287.792969 256.757812 295.382812 261.550781 302.125 C 260.875 304.175781 261.902344 305.710938 263.175781 307.53125 C 265.292969 310.554688 267.734375 313.414062 270.125 316.21875 C 271.882812 318.285156 273.777344 320.894531 276.222656 322.203125 C 276.222656 322.203125 276.226562 322.203125 276.226562 322.203125 C 277.628906 323.046875 278.761719 323.003906 279.652344 322.203125 C 288.964844 330.5 300.492188 335.871094 312.152344 329.164062 C 330.761719 318.472656 327.910156 289.894531 324.097656 272.472656 " fill-opacity="1" fill-rule="nonzero"/></g><path fill="#0d6efd" d="M 199.078125 271.148438 C 195.347656 247.660156 190.027344 224.71875 185.3125 205.378906 L 185.25 205.121094 C 182.636719 194.386719 179.933594 183.292969 177.070312 172.425781 C 176.566406 170.519531 176.132812 168.269531 175.671875 165.886719 C 174.160156 158.058594 172.277344 148.316406 166.34375 143.878906 C 165.773438 143.449219 164.558594 142.960938 160.214844 142.960938 C 153.054688 142.960938 141.601562 144.304688 137.464844 145.027344 C 133.476562 145.726562 129.234375 146.398438 124.847656 147.089844 C 107.582031 149.816406 88.015625 152.902344 73.078125 159.40625 C 62.597656 163.570312 62.679688 169.226562 62.796875 177.78125 C 62.816406 179.277344 62.839844 180.882812 62.804688 182.589844 C 62.605469 192.578125 75.128906 261.097656 81.855469 297.902344 C 82.789062 303.011719 83.609375 307.523438 84.269531 311.148438 C 87.382812 329.402344 94.21875 337.636719 107.125 338.566406 C 107.371094 338.582031 107.691406 338.679688 108.078125 338.679688 C 116.765625 338.679688 188.144531 331.425781 199.183594 316.199219 C 202.183594 311.90625 202.121094 303.957031 202.082031 299.144531 C 202.007812 289.558594 200.453125 279.78125 199.078125 271.148438 " fill-opacity="1" fill-rule="nonzero"/><path fill="#0d6efd" d="M 167.640625 343.296875 C 162.34375 344.628906 157.097656 346.136719 151.753906 347.296875 C 147.175781 348.292969 142.511719 348.683594 137.84375 348.046875 C 134.578125 347.601562 136.5 344.136719 138.390625 343.214844 C 139.464844 342.691406 140.621094 342.320312 141.75 341.9375 C 147.683594 339.929688 153.914062 338.589844 160.082031 337.523438 C 163.25 336.980469 172.929688 334.5625 175.59375 337.628906 C 175.652344 337.691406 175.714844 337.726562 175.785156 337.742188 C 176.925781 341.816406 170.324219 342.625 167.640625 343.296875 Z M 176.308594 337.074219 C 175.289062 335.460938 172.835938 335.507812 171.152344 335.449219 C 167.042969 335.304688 162.847656 335.972656 158.796875 336.601562 C 153.972656 337.34375 149.179688 338.359375 144.472656 339.65625 C 141.386719 340.507812 137.140625 341.460938 134.765625 343.816406 C 132.273438 346.289062 133.328125 348.285156 136.523438 349.226562 C 141.414062 350.675781 147.253906 349.644531 152.128906 348.652344 C 159.054688 347.242188 166.269531 345.558594 172.953125 343.246094 C 175.597656 342.332031 177.664062 340.238281 176.308594 337.503906 C 176.382812 337.378906 176.402344 337.21875 176.308594 337.074219 " fill-opacity="1" fill-rule="nonzero"/><path fill="#0d6efd" d="M 67.234375 152.855469 C 67.460938 151.621094 66.882812 149.398438 65.542969 148.964844 C 65.300781 148.886719 65.164062 149.195312 65.3125 149.363281 C 66.195312 150.367188 66.5 151.015625 66.214844 152.359375 C 65.996094 153.375 65.484375 154.421875 64.421875 154.734375 C 63.058594 155.140625 61.605469 153.964844 61.542969 152.621094 C 61.476562 151.246094 62.648438 149.914062 63.9375 149.621094 C 64.140625 149.578125 64.070312 149.3125 63.894531 149.292969 C 62.074219 149.054688 60.617188 150.652344 60.5 152.402344 C 60.363281 154.457031 62.003906 155.835938 63.972656 155.945312 C 65.738281 156.042969 66.945312 154.425781 67.234375 152.855469 " fill-opacity="1" fill-rule="nonzero"/><path fill="#0d6efd" d="M 200.207031 327.957031 C 200.246094 327.957031 200.246094 327.898438 200.207031 327.898438 C 200.171875 327.898438 200.171875 327.957031 200.207031 327.957031 " fill-opacity="1" fill-rule="nonzero"/><path fill="#0d6efd" d="M 89.597656 145.125 C 101.242188 143.964844 113.007812 141.277344 124.378906 138.582031 C 124.859375 138.46875 124.765625 137.667969 124.265625 137.714844 C 112.585938 138.894531 101.023438 142.222656 89.503906 144.4375 C 89.121094 144.511719 89.203125 145.167969 89.597656 145.125 " fill-opacity="1" fill-rule="nonzero"/><path fill="#ffffff" d="M 273.347656 314.9375 C 272.878906 314.984375 272.601562 314.921875 272.347656 314.523438 C 272.285156 314.425781 272.347656 314.285156 272.457031 314.257812 C 272.90625 314.140625 273.152344 314.292969 273.480469 314.613281 C 273.609375 314.738281 273.503906 314.921875 273.347656 314.9375 Z M 271.140625 313.910156 C 268.972656 312.027344 267.0625 309.410156 266.628906 306.53125 C 266.609375 306.402344 266.804688 306.339844 266.832031 306.472656 C 267.445312 309.339844 270.15625 311.167969 271.496094 313.636719 C 271.617188 313.867188 271.332031 314.074219 271.140625 313.910156 Z M 274.699219 313.253906 C 273.925781 311.425781 272.394531 309.734375 271.132812 308.238281 C 270.210938 307.144531 269.34375 305.941406 268.183594 305.089844 C 267.550781 304.621094 267.046875 304.648438 266.691406 304.929688 C 263.582031 306.078125 269.878906 314.328125 271.335938 315.351562 C 273.207031 316.660156 275.730469 315.679688 274.699219 313.253906 " fill-opacity="1" fill-rule="nonzero"/><path fill="#ffffff" d="M 267.261719 301.832031 C 267.445312 301.621094 267.273438 301.230469 266.964844 301.328125 C 266.078125 301.621094 265.378906 302.171875 264.675781 302.765625 C 263.863281 303.457031 263.027344 304.238281 262.601562 305.234375 C 262.519531 305.421875 262.699219 305.683594 262.910156 305.542969 C 263.628906 305.070312 264.242188 304.453125 264.886719 303.882812 C 265.671875 303.191406 266.566406 302.632812 267.261719 301.832031 " fill-opacity="1" fill-rule="nonzero"/><path fill="#ffffff" d="M 277.667969 315.292969 C 277.023438 315.585938 276.597656 316.128906 276.128906 316.640625 C 275.515625 317.304688 274.820312 317.855469 274.027344 318.285156 C 273.429688 318.613281 273.957031 319.5 274.554688 319.191406 C 275.902344 318.507812 277.761719 317.191406 278.078125 315.609375 C 278.132812 315.355469 277.898438 315.191406 277.667969 315.292969 " fill-opacity="1" fill-rule="nonzero"/><path fill="#ffffff" d="M 199.820312 329.070312 C 196.960938 329.910156 194.425781 331.519531 191.59375 332.429688 C 190.925781 332.640625 191.199219 333.664062 191.886719 333.484375 C 194.824219 332.710938 197.519531 331.347656 200.175781 329.914062 C 200.640625 329.664062 200.324219 328.921875 199.820312 329.070312 " fill-opacity="1" fill-rule="nonzero"/><path fill="#ffffff" d="M 115.265625 345.914062 C 111.371094 346.226562 107.503906 347.554688 103.71875 348.484375 C 102.910156 348.683594 103.257812 349.867188 104.058594 349.714844 C 107.832031 348.996094 111.796875 348.285156 115.410156 346.972656 C 115.945312 346.777344 115.910156 345.863281 115.265625 345.914062 " fill-opacity="1" fill-rule="nonzero"/><path fill="#ffffff" d="M 192.917969 283.835938 C 182.277344 284.945312 171.65625 287.78125 161.179688 289.917969 C 150.40625 292.117188 139.609375 294.21875 128.867188 296.546875 C 124.035156 297.59375 119.203125 298.621094 114.371094 299.640625 C 114.316406 299.578125 114.261719 299.519531 114.203125 299.464844 C 113.492188 298.34375 112.125 298.082031 111.085938 299.171875 C 110.742188 299.535156 110.546875 299.996094 110.472656 300.46875 C 106.058594 301.398438 101.644531 302.324219 97.230469 303.253906 C 96.433594 303.421875 96.773438 304.628906 97.566406 304.46875 C 101.925781 303.59375 106.289062 302.707031 110.644531 301.820312 C 110.867188 302.28125 111.253906 302.664062 111.832031 302.84375 C 113.050781 303.226562 114.886719 302.648438 114.910156 301.136719 C 114.910156 301.070312 114.894531 301.015625 114.890625 300.949219 C 119.398438 300.023438 123.910156 299.09375 128.414062 298.144531 C 138.871094 295.933594 149.367188 293.910156 159.847656 291.796875 C 170.847656 289.578125 182.304688 288.003906 193.039062 284.71875 C 193.503906 284.574219 193.441406 283.777344 192.917969 283.835938 " fill-opacity="1" fill-rule="nonzero"/><path fill="#ffffff" d="M 111.121094 307.625 C 106.925781 308.136719 102.800781 309.082031 98.605469 309.652344 C 97.484375 309.804688 97.820312 311.519531 98.863281 311.550781 C 103.117188 311.691406 107.613281 310.675781 111.484375 308.960938 C 112.117188 308.675781 111.820312 307.539062 111.121094 307.625 " fill-opacity="1" fill-rule="nonzero"/><path fill="#ffffff" d="M 193.398438 289.246094 C 189.316406 290.050781 185.339844 291.285156 181.269531 292.152344 C 180.199219 292.375 180.441406 294.097656 181.527344 294.050781 C 185.792969 293.875 190.203125 292.566406 193.945312 290.554688 C 194.699219 290.148438 194.160156 289.097656 193.398438 289.246094 " fill-opacity="1" fill-rule="nonzero"/><path fill="#ffffff" d="M 118.738281 210.058594 C 126.066406 212.1875 133.859375 214.066406 140.5625 217.855469 C 140.945312 218.074219 141.09375 218.605469 140.859375 218.980469 C 136.421875 226.03125 131.96875 233.078125 127.527344 240.128906 C 127.136719 240.742188 126.183594 240.644531 125.976562 239.925781 C 123.292969 230.5625 119.984375 221.125 118.296875 211.515625 C 117.402344 211.214844 117.804688 209.78125 118.738281 210.058594 Z M 158.402344 209.363281 C 161.390625 209.71875 164.941406 211.140625 167.660156 212.554688 C 167.203125 211.003906 166.757812 209.429688 166.710938 207.8125 C 166.691406 207.207031 167.507812 207.175781 167.703125 207.679688 C 168.480469 209.679688 169.035156 211.808594 169.667969 213.863281 C 170.253906 215.773438 170.984375 217.699219 170.882812 219.71875 C 170.863281 220.183594 170.15625 220.472656 169.933594 219.976562 C 169.09375 218.144531 168.640625 216.109375 168.113281 214.15625 C 167.167969 216.414062 165.558594 218.570312 164.230469 220.578125 C 163.765625 221.28125 162.078125 224.488281 160.976562 222.664062 C 159.769531 220.667969 159.402344 217.921875 158.867188 215.691406 C 158.488281 214.113281 158.066406 212.4375 158.03125 210.792969 C 158.023438 210.792969 158.019531 210.789062 158.015625 210.785156 C 157.398438 210.433594 157.617188 209.269531 158.402344 209.363281 Z M 100.546875 235.703125 C 97.617188 234.238281 94.121094 232.941406 91.484375 230.933594 C 91.496094 230.980469 91.507812 231.03125 91.515625 231.078125 C 91.96875 233.011719 92.636719 234.929688 92.820312 236.910156 C 92.871094 237.449219 92.121094 237.566406 91.867188 237.167969 C 90.78125 235.480469 90.429688 233.433594 90.011719 231.492188 C 89.5625 229.386719 88.964844 227.273438 88.640625 225.144531 C 88.566406 224.617188 89.277344 224.210938 89.566406 224.753906 C 90.320312 226.167969 90.746094 227.746094 91.117188 229.320312 C 92.765625 226.753906 95.132812 223.757812 97.539062 221.972656 C 98.183594 221.496094 98.949219 222.398438 98.585938 223.019531 C 98.574219 223.039062 98.5625 223.058594 98.546875 223.074219 C 100.3125 226.597656 100.867188 230.980469 101.789062 234.746094 C 101.976562 235.496094 101.207031 236.039062 100.546875 235.703125 Z M 192.757812 276.164062 C 189.027344 261.523438 180.378906 212.894531 176.65625 198.25 C 174.792969 189.464844 167.140625 158.398438 167.140625 158.398438 C 143.714844 163.195312 130.410156 165.113281 106.980469 169.640625 C 94.738281 171.769531 80.628906 174.699219 69.1875 178.957031 C 69.1875 178.957031 74.972656 208.367188 76.570312 216.621094 C 79.5 234.722656 88.398438 277.761719 93.1875 295.601562 C 101.707031 295.066406 114.496094 291.871094 122.75 290.277344 C 142.445312 286.28125 173.324219 280.6875 192.757812 276.164062 " fill-opacity="1" fill-rule="nonzero"/><path fill="#ffffff" d="M 297.933594 130.914062 C 298.648438 127.96875 300.378906 125.378906 302.769531 123.597656 C 302.90625 123.496094 302.917969 123.25 302.714844 123.203125 C 300.269531 122.636719 298.703125 126.257812 297.808594 127.984375 C 295.636719 132.175781 295.367188 137.742188 297.949219 141.796875 C 298.105469 142.042969 298.453125 141.933594 298.46875 141.65625 C 298.5625 140.332031 298.28125 139.496094 297.867188 138.210938 C 297.085938 135.804688 297.347656 133.320312 297.933594 130.914062 " fill-opacity="1" fill-rule="nonzero"/><path fill="#ffffff" d="M 302.507812 126.199219 C 302.164062 126.878906 301.804688 127.621094 302.035156 128.382812 C 302.070312 128.488281 302.226562 128.523438 302.28125 128.414062 C 302.609375 127.765625 302.664062 126.984375 302.746094 126.265625 C 302.753906 126.136719 302.5625 126.09375 302.507812 126.199219 " fill-opacity="1" fill-rule="nonzero"/><path fill="#ffffff" d="M 304.765625 128.753906 C 305.273438 128.105469 305.402344 127.128906 305.230469 126.332031 C 305.203125 126.195312 305.015625 126.1875 304.949219 126.292969 C 304.546875 126.945312 304.414062 127.894531 304.515625 128.648438 C 304.527344 128.757812 304.675781 128.867188 304.765625 128.753906 " fill-opacity="1" fill-rule="nonzero"/><path fill="#ffffff" d="M 300.113281 130.082031 C 300.097656 129.980469 299.960938 129.875 299.871094 129.984375 C 299.480469 130.480469 299.359375 131 299.410156 131.632812 C 299.425781 131.8125 299.644531 131.875 299.75 131.722656 C 300.101562 131.21875 300.191406 130.6875 300.113281 130.082031 " fill-opacity="1" fill-rule="nonzero"/><path fill="#ffffff" d="M 302.28125 130.25 C 301.78125 130.714844 301.558594 131.648438 301.925781 132.238281 C 302.019531 132.386719 302.222656 132.382812 302.316406 132.238281 C 302.640625 131.726562 302.691406 130.898438 302.523438 130.316406 C 302.492188 130.207031 302.363281 130.179688 302.28125 130.25 " fill-opacity="1" fill-rule="nonzero"/><path fill="#ffffff" d="M 305.28125 130.367188 C 305.21875 130.207031 305 130.109375 304.867188 130.261719 C 304.351562 130.851562 304.398438 131.574219 304.363281 132.320312 C 304.351562 132.523438 304.632812 132.582031 304.730469 132.417969 C 305.121094 131.777344 305.5625 131.136719 305.28125 130.367188 " fill-opacity="1" fill-rule="nonzero"/><path fill="#ffffff" d="M 299.925781 133.8125 C 299.683594 134.246094 299.679688 134.683594 299.71875 135.175781 C 299.742188 135.464844 300.15625 135.546875 300.246094 135.246094 C 300.378906 134.773438 300.460938 134.332031 300.289062 133.863281 C 300.230469 133.710938 300.015625 133.652344 299.925781 133.8125 " fill-opacity="1" fill-rule="nonzero"/><path fill="#ffffff" d="M 303.183594 134.230469 C 302.675781 134.800781 302.648438 135.398438 302.769531 136.132812 C 302.792969 136.289062 303.035156 136.308594 303.097656 136.175781 C 303.417969 135.546875 303.570312 135 303.441406 134.296875 C 303.417969 134.183594 303.257812 134.148438 303.183594 134.230469 " fill-opacity="1" fill-rule="nonzero"/><path fill="#ffffff" d="M 301.210938 137.367188 C 300.800781 137.9375 300.804688 138.578125 300.910156 139.25 C 300.929688 139.402344 301.132812 139.386719 301.203125 139.289062 C 301.621094 138.710938 301.570312 138.082031 301.464844 137.398438 C 301.441406 137.265625 301.269531 137.277344 301.210938 137.367188 " fill-opacity="1" fill-rule="nonzero"/><path fill="#ffffff" d="M 271.449219 142.46875 C 271.660156 142.652344 271.984375 142.480469 271.917969 142.195312 C 271.617188 140.910156 271.109375 140.195312 270.339844 139.09375 C 268.886719 137.011719 268.402344 134.578125 268.257812 132.09375 C 268.078125 129.035156 268.988281 126.058594 270.769531 123.628906 C 270.867188 123.5 270.742188 123.292969 270.582031 123.304688 C 268.082031 123.480469 267.640625 127.375 267.285156 129.292969 C 266.433594 133.933594 267.796875 139.34375 271.449219 142.46875 " fill-opacity="1" fill-rule="nonzero"/><path fill="#ffffff" d="M 271.6875 128.421875 C 271.804688 127.703125 271.632812 126.941406 271.503906 126.230469 C 271.480469 126.109375 271.28125 126.109375 271.257812 126.230469 C 271.125 126.976562 270.996094 127.792969 271.441406 128.453125 C 271.5 128.539062 271.664062 128.542969 271.6875 128.421875 " fill-opacity="1" fill-rule="nonzero"/><path fill="#ffffff" d="M 274.171875 127.980469 C 274.464844 127.234375 274.285156 126.257812 273.902344 125.566406 C 273.835938 125.449219 273.652344 125.476562 273.621094 125.601562 C 273.421875 126.355469 273.585938 127.316406 273.90625 128.015625 C 273.964844 128.148438 274.136719 128.085938 274.171875 127.980469 " fill-opacity="1" fill-rule="nonzero"/><path fill="#ffffff" d="M 269.832031 130.648438 C 269.605469 131.222656 269.65625 131.757812 269.882812 132.324219 C 269.945312 132.488281 270.171875 132.503906 270.230469 132.324219 C 270.429688 131.722656 270.34375 131.179688 270.085938 130.613281 C 270.03125 130.492188 269.867188 130.546875 269.832031 130.648438 " fill-opacity="1" fill-rule="nonzero"/><path fill="#ffffff" d="M 272.835938 132.070312 C 273 131.492188 272.804688 130.667969 272.480469 130.164062 C 272.421875 130.074219 272.285156 130.066406 272.226562 130.164062 C 271.890625 130.75 271.9375 131.714844 272.460938 132.167969 C 272.585938 132.28125 272.789062 132.242188 272.835938 132.070312 " fill-opacity="1" fill-rule="nonzero"/><path fill="#ffffff" d="M 275.195312 131.535156 C 275.378906 130.808594 275.621094 130.0625 275.128906 129.410156 C 275.03125 129.28125 274.792969 129.222656 274.707031 129.410156 C 274.386719 130.128906 274.632812 130.804688 274.816406 131.535156 C 274.863281 131.722656 275.148438 131.722656 275.195312 131.535156 " fill-opacity="1" fill-rule="nonzero"/><path fill="#ffffff" d="M 271.734375 135.546875 C 271.726562 135.027344 271.664062 134.585938 271.34375 134.171875 C 271.253906 134.058594 271.042969 134.125 271.015625 134.261719 C 270.914062 134.746094 271.027344 135.160156 271.210938 135.621094 C 271.316406 135.886719 271.742188 135.871094 271.734375 135.546875 " fill-opacity="1" fill-rule="nonzero"/><path fill="#ffffff" d="M 274.253906 133.703125 C 273.933594 134.398438 274.074219 134.972656 274.40625 135.640625 C 274.476562 135.777344 274.714844 135.753906 274.742188 135.597656 C 274.859375 134.910156 274.847656 134.332031 274.519531 133.703125 C 274.472656 133.605469 274.304688 133.597656 274.253906 133.703125 " fill-opacity="1" fill-rule="nonzero"/><path fill="#ffffff" d="M 273.835938 139.132812 C 274.0625 138.457031 273.839844 137.867188 273.535156 137.246094 C 273.476562 137.128906 273.316406 137.175781 273.277344 137.28125 C 273.054688 137.945312 273.242188 138.5625 273.539062 139.167969 C 273.605469 139.300781 273.792969 139.25 273.835938 139.132812 " fill-opacity="1" fill-rule="nonzero"/></svg>